Immortals (2011) 1080p MKV x264 AC3+DTS MultiSubs
.
[IMG]http://img210.imageshack.us/img210/5748/imor2012.jpg[/IMG]
.
Verenigde Staten
Actie / Fantasy
110 minuten

geregisseerd door Tarsem Singh
met Henry Cavill, Mickey Rourke en Freida Pinto

De bloeddorstige koning Hyperion (Mickey Rourke) laat met zijn leger een spoor van vernietiging achter in het oude Griekenland. Hyperion is op zoek naar de boog van Epirus. Daarmee wil hij de Goden van Olympus omverwerpen en zichzelf tot heerser van de wereld kronen. Een door Zeus (Luke Evans) uitverkoren sterfelijke, Theseus (Henry Cavill), moet het gevecht tegen Hyperion leiden. Met de hulp van het orakel Phaedra (Freida Pinto) verzamelt de jonge krijger genoeg mannen om zich heen om het op te nemen tegen de verraderlijke koning en zijn leger.

Vanaf 13 maart te huur
Vanaf 22 maart te koop op DVD en Blu-Ray
. 
http://www.moviemeter.nl/film/66621
.
PLOT
.
Theseus is a mortal man chosen by Zeus to lead the fight against the ruthless King Hyperion, who is on a rampage across Greece to obtain a weapon that can destroy humanity. 
. 
http://www.imdb.com/title/tt1253864/
.
INFO
.
Source: HDC
Subs: Dutch, English, English FHI, Portuguese, Romanian.
NL Vertaling: QoQ-Team
.
Format                           : Matroska
Format version                   : Version 2
File size                        : 10.3 GiB
Duration                         : 1h 50mn
Overall bit rate                 : 13.4 Mbps
Encoded date                     : UTC 2012-02-15 22:41:00
Writing application              : mkvmerge v5.2.0 ('I can't explain') built on Dec 18 2011 18:12:03
Writing library                  : libebml v1.2.3 + libmatroska v1.3.0

Video
ID                               : 1
Format                           : AVC
Format/Info                      : Advanced Video Codec
Format profile                   : High@L4.1
Format settings, CABAC           : Yes
Format settings, ReFrames        : 4 frames
Codec ID                         : V_MPEG4/ISO/AVC
Duration                         : 1h 50mn
Bit rate                         : 11.2 Mbps
Width                            : 1 920 pixels
Height                           : 1 036 pixels
Display aspect ratio             : 1.853
Frame rate                       : 23.976 fps
Color space                      : YUV
Chroma subsampling               : 4:2:0
Bit depth                        : 8 bits
Scan type                        : Progressive
Bits/(Pixel*Frame)               : 0.236
Stream size                      : 8.47 GiB (82%)
Writing library                  : x264 core 120 r2164 da19765
Encoding settings                : cabac=1 / ref=4 / deblock=1:-3:-3 / analyse=0x3:0x133 / me=umh / subme=10 / psy=1 / psy_rd=1.00:0.00 / mixed_ref=1 / me_range=64 / chroma_me=1 / trellis=2 / 8x8dct=1 / cqm=0 / deadzone=21,11 / fast_pskip=0 / chroma_qp_offset=-2 / threads=12 / sliced_threads=0 / nr=0 / decimate=0 / interlaced=0 / bluray_compat=0 / constrained_intra=0 / bframes=8 / b_pyramid=2 / b_adapt=2 / b_bias=0 / direct=3 / weightb=1 / open_gop=0 / weightp=2 / keyint=240 / keyint_min=24 / scenecut=40 / intra_refresh=0 / rc=2pass / mbtree=0 / bitrate=11248 / ratetol=1.0 / qcomp=0.70 / qpmin=0 / qpmax=69 / qpstep=4 / cplxblur=20.0 / qblur=0.5 / ip_ratio=1.50 / pb_ratio=1.20 / aq=1:1.10 / zones=146636,158883,b=0.1
Language                         : English
Default                          : Yes
Forced                           : No

Audio #1
ID                               : 2
Format                           : DTS
Format/Info                      : Digital Theater Systems
Codec ID                         : A_DTS
Duration                         : 1h 50mn
Bit rate mode                    : Constant
Bit rate                         : 1 510 Kbps
Channel(s)                       : 6 channels
Channel positions                : Front: L C R, Side: L R, LFE
Sampling rate                    : 48.0 KHz
Bit depth                        : 24 bits
Compression mode                 : Lossy
Stream size                      : 1.16 GiB (11%)
Title                            : DTS
Language                         : English
Default                          : Yes
Forced                           : No

Audio #2
ID                               : 3
Format                           : AC-3
Format/Info                      : Audio Coding 3
Mode extension                   : CM (complete main)
Codec ID                         : A_AC3
Duration                         : 1h 50mn
Bit rate mode                    : Constant
Bit rate                         : 640 Kbps
Channel(s)                       : 6 channels
Channel positions                : Front: L C R, Side: L R, LFE
Sampling rate                    : 48.0 KHz
Bit depth                        : 16 bits
Compression mode                 : Lossy
Stream size                      : 506 MiB (5%)
Title                            : AC3
Language                         : English
Default                          : No
Forced                           : No

Text #1
ID                               : 4
Format                           : UTF-8
Codec ID                         : S_TEXT/UTF8
Codec ID/Info                    : UTF-8 Plain Text
Language                         : Dutch
Default                          : No
Forced                           : No

Text #2
ID                               : 5
Format                           : UTF-8
Codec ID                         : S_TEXT/UTF8
Codec ID/Info                    : UTF-8 Plain Text
Title                            : Normal
Language                         : English
Default                          : No
Forced                           : No

Text #3
ID                               : 6
Format                           : UTF-8
Codec ID                         : S_TEXT/UTF8
Codec ID/Info                    : UTF-8 Plain Text
Title                            : FHI
Language                         : English
Default                          : No
Forced                           : No

Text #4
ID                               : 7
Format                           : UTF-8
Codec ID                         : S_TEXT/UTF8
Codec ID/Info                    : UTF-8 Plain Text
Language                         : Portuguese
Default                          : No
Forced                           : No

Text #5
ID                               : 8
Format                           : UTF-8
Codec ID                         : S_TEXT/UTF8
Codec ID/Info                    : UTF-8 Plain Text
Language                         : Romanian
Default                          : No
Forced                           : No
.
Enjoy
